<?xml version="1.0" standalone="no"?>
<!DOCTYPE svg PUBLIC "-//W3C//DTD SVG 20010904//EN"
 "http://www.w3.org/TR/2001/REC-SVG-20010904/DTD/svg10.dtd">
<svg version="1.0" xmlns="http://www.w3.org/2000/svg"
 width="1200.000000pt" height="1200.000000pt" viewBox="0 0 1200.000000 1200.000000"
 preserveAspectRatio="xMidYMid meet">
<metadata>
Created by potrace 1.11, written by Peter Selinger 2001-2013
</metadata>
<g transform="translate(0.000000,1200.000000) scale(0.100000,-0.100000)"
fill="#000000" stroke="none">
<path d="M5585 11991 c-253 -16 -619 -69 -895 -132 -52 -11 -111 -24 -130 -29
-19 -4 -71 -17 -115 -30 -44 -12 -102 -28 -130 -35 -95 -26 -351 -114 -498
-171 -639 -249 -1255 -624 -1777 -1082 -214 -189 -525 -511 -696 -722 -397
-492 -716 -1038 -938 -1607 -62 -160 -144 -401 -177 -523 -12 -41 -28 -100
-36 -130 -8 -30 -19 -71 -23 -90 -5 -19 -18 -78 -29 -130 -43 -187 -78 -399
-111 -660 -35 -278 -38 -970 -5 -1255 30 -266 64 -476 116 -705 11 -52 24
-111 29 -130 4 -19 17 -71 30 -115 12 -44 28 -102 35 -130 44 -164 149 -454
252 -695 596 -1388 1734 -2530 3117 -3127 624 -270 1186 -412 1891 -479 136
-13 253 -15 580 -11 391 4 459 8 725 43 152 20 471 78 570 104 19 5 67 16 105
26 69 16 86 21 235 64 229 67 571 195 770 287 681 315 1245 707 1765 1228 521
520 913 1084 1228 1765 125 269 285 728 351 1005 9 39 21 86 26 105 26 99 84
418 104 570 35 266 39 334 43 725 6 542 -16 792 -113 1280 -169 850 -544 1683
-1075 2390 -560 745 -1252 1328 -2084 1755 -325 167 -755 338 -1063 421 -42
12 -102 28 -132 36 -30 8 -71 19 -90 23 -19 5 -78 18 -130 29 -226 51 -423 83
-705 117 -150 18 -811 27 -1020 15z m-3222 -5683 c3 -467 6 -551 20 -597 34
-115 102 -188 214 -232 52 -21 76 -23 223 -23 151 -1 171 1 234 24 113 41 190
127 218 247 7 31 13 240 17 583 l6 535 168 3 167 2 0 -537 c0 -496 -2 -545
-20 -631 -72 -342 -323 -502 -785 -502 -379 0 -625 114 -731 338 -68 144 -67
132 -72 736 -2 301 -1 559 2 572 l6 24 165 0 164 0 4 -542z m3007 528 c201
-30 308 -98 361 -232 20 -50 23 -77 23 -174 0 -152 -21 -209 -110 -297 l-63
-62 52 -24 c100 -46 165 -136 193 -266 53 -250 -46 -454 -259 -530 -101 -37
-170 -41 -701 -41 l-517 0 -24 25 -25 24 0 755 c0 543 3 762 11 780 24 53 46
55 524 55 325 1 465 -3 535 -13z m2527 2 c-3 -7 -24 -60 -47 -118 -23 -58 -47
-111 -52 -117 -8 -10 -119 -13 -494 -13 l-484 0 0 -210 0 -210 400 0 c220 0
400 -3 400 -7 0 -23 -86 -221 -103 -235 -17 -16 -47 -18 -300 -18 -403 0 -397
4 -397 -275 l0 -165 540 0 c297 0 540 -1 540 -3 0 -11 -93 -234 -102 -244 -14
-17 -1234 -19 -1271 -2 -14 6 -30 22 -36 36 -17 37 -15 1499 2 1533 7 14 28
33 47 42 32 17 87 18 699 18 527 0 662 -3 658 -12z m1678 -2 c152 -21 252 -64
321 -138 89 -95 114 -170 114 -354 0 -130 -14 -205 -51 -276 -41 -78 -123
-145 -221 -182 -27 -10 -48 -20 -48 -23 0 -7 41 -78 175 -308 128 -218 195
-335 195 -341 0 -2 -82 -3 -182 -2 l-183 3 -68 120 c-38 66 -87 153 -109 194
-22 40 -68 123 -102 185 l-63 111 -204 3 c-225 2 -250 -3 -293 -61 -20 -27
-21 -41 -21 -293 l0 -264 -165 2 -165 3 -3 784 c-2 863 -6 817 60 838 53 17
888 16 1013 -1z"/>
<path d="M4640 6374 l0 -215 318 3 c315 3 317 3 367 28 67 33 95 87 95 181 0
110 -28 165 -105 200 -36 17 -70 19 -357 19 l-318 0 0 -216z"/>
<path d="M4739 5911 c-92 -29 -99 -48 -99 -271 l0 -182 353 4 352 3 50 25 c27
14 60 40 72 58 41 62 42 219 2 287 -12 20 -39 43 -67 57 -46 22 -56 23 -342
25 -162 1 -307 -2 -321 -6z"/>
<path d="M8837 6584 c-4 -4 -7 -117 -7 -251 l0 -244 358 3 359 3 42 28 c64 42
85 98 86 217 0 82 -4 102 -25 145 -20 40 -35 55 -75 75 l-50 25 -340 3 c-188
1 -344 0 -348 -4z"/>
</g>
</svg>
